# xmcd
#
# Track frame offsets:
#	150
#	16750
#	33937
#	50162
#	65712
#	84450
#	108375
#	124987
#	144212
#	160525
#	172187
#	189287
#
# Disc length: 2777
#
# Revision: 4
# Processed by: cddbd v1.5.1PL0 Copyright (c) Steve Scherf et al.
# Submitted via: CDex 1.40Beta8
# Normalized: r3:DSETVAR1
#
DISCID=9b0ad70c
DTITLE=Various Artist - Sommerhits 4
DYEAR=1997
DGENRE=Pop
TTITLE0=Los Del Mar - Macarena
TTITLE1=Ibiza Sunrise - Bamboleo
TTITLE2=Kid Creole and The Coconuts - Lambada
TTITLE3=Billy Ocean - Stay the night
TTITLE4=Ini Kamoze - Here comes the Hotstepper
TTITLE5=Jimmy Cliff - Reggae Nights
TTITLE6=Farahy - Wake Up!
TTITLE7=Santana - Oye como Va
TTITLE8=Shabba Ranks - Mr. Loverman
TTITLE9=Sly and the Family Stone - Hot fun in the Summertime
TTITLE10=Blackout All Stars - I like it like that
TTITLE11=Zhané - Hey Mr. DJ
EXTD=YEAR: 1997 ID3G: 13
EXTT0=
EXTT1=
EXTT2=
EXTT3=
EXTT4=
EXTT5=
EXTT6=
EXTT7=
EXTT8=
EXTT9=
EXTT10=
EXTT11=
PLAYORDER=
